<?xml version="1.0" encoding="UTF-8"?>
<svg id="svg-1187867664_5074" xmlns="http://www.w3.org/2000/svg" version="1.1" viewBox="0 0 100.12 25.22">
  <!-- Generator: Adobe Illustrator 29.8.2, SVG Export Plug-In . SVG Version: 2.1.1 Build 3)  -->
  <defs>
    <style>
      .st0 {
        fill: #fff;
      }
    </style>
  </defs>
  <path class="st0" d="M7.17,20.11l-.04-.04c-4.15-4.35-4.12-11.36.07-15.67,2.01-2.07,4.73-3.22,7.56-3.21,2.83.01,5.54,1.19,7.53,3.28l.03.04c.09.1.09.26,0,.36-.05.05-.11.07-.17.07s-.13-.03-.17-.07l-.07-.07c-1.74-1.81-4.1-2.82-6.56-2.82s-4.82,1.02-6.56,2.82c-3.62,3.76-3.62,9.86,0,13.62.55.57,1.13,1.11,1.74,1.62.04.04.08.07.13.1.05.03.1.04.15.04.05,0,.11-.02.15-.06.04-.03.08-.07.12-.11l2.61-2.71c.06-.06.1-.11.12-.15.04-.05.06-.12.06-.18,0-.07-.03-.13-.08-.18-.04-.05-.09-.09-.14-.13-.58-.5-1.13-1.03-1.66-1.58-2.63-2.73-2.63-7.15,0-9.88,1.26-1.31,2.97-2.05,4.76-2.05s3.5.74,4.76,2.05l.07.07c.09.1.09.26,0,.36-.05.05-.11.07-.17.07s-.13-.03-.17-.07l-.07-.07c-1.01-1.05-2.38-1.64-3.81-1.64s-2.8.59-3.81,1.64c-2.1,2.19-2.1,5.72,0,7.91.55.57,1.11,1.11,1.69,1.64.05.05.1.08.13.1.05.04.11.05.16.05.05,0,.1-.02.16-.06.04-.03.09-.07.12-.12l2.16-2.24s.08-.09.12-.14c.04-.05.06-.11.06-.17,0-.06-.03-.12-.07-.17-.04-.05-.08-.09-.13-.14-.56-.53-1.1-1.07-1.64-1.63-1.23-1.28-1.23-3.35,0-4.63.59-.61,1.39-.96,2.23-.96s1.64.34,2.23.96c.32.33.63.67.93,1.01.48.55,1.3.59,1.82.09.5-.47.57-1.27.15-1.83C19.16-.72,10.82-1.75,5.06,2.96-.7,7.67-1.69,16.33,2.85,22.31c.81,1.07,1.78,2.01,2.86,2.79.11.08.21.12.28.11.07,0,.16-.06.25-.16l2.65-2.75s.09-.1.13-.15c.04-.05.06-.12.06-.19,0-.07-.04-.13-.09-.18-.05-.05-.09-.09-.15-.13-.59-.48-1.15-.99-1.68-1.54ZM40.09,11.94c-.52,3.46-2.73,5.24-6.57,5.24s-6.69-2.72-6.69-7,2.73-7,6.69-7c3.74,0,6.3,2.31,6.55,5.22h-2.35c-.27-2.11-1.91-3.18-4.19-3.18-2.68,0-4.46,1.84-4.46,4.96s1.78,4.96,4.46,4.96c2.48,0,3.7-.89,4.22-3.21h2.36ZM55.01,10.18c0,4.45-2.9,7-6.69,7s-6.69-2.55-6.69-7,2.9-7,6.69-7,6.69,2.54,6.69,7ZM43.85,10.18c0,3.13,1.78,4.96,4.46,4.96s4.46-1.83,4.46-4.96-1.78-4.96-4.46-4.96-4.46,1.84-4.46,4.96ZM76.48,8.4v8.4h-2.23v-8.14c0-2.27-1.12-3.44-3.22-3.44-1.91,0-3.35,1.32-3.35,4.07v7.51h-2.23v-8.14c0-2.27-1.12-3.44-3.22-3.44-1.91,0-3.35,1.32-3.35,4.07v7.51h-2.23V3.56h2.23v1.48c0,.13.05.18.17.18s.25-.18.27-.26c.77-1.19,1.98-1.78,3.64-1.78,1.96,0,3.35.87,4.07,2.32.08.13.15.23.25.23.12,0,.2-.1.3-.28.72-1.5,2.13-2.27,4.19-2.27,2.95,0,4.71,1.99,4.71,5.22h0ZM91.11,12.6c-.3,1.3-.94,2.37-1.91,3.26-.99.89-2.43,1.32-4.29,1.32-4.09,0-6.82-2.73-6.82-7s2.6-7,6.57-7,6.42,2.82,6.42,6.11l.02,1.53h-10.66c.17,2.65,1.81,4.33,4.46,4.33,2.16,0,3.42-.84,3.84-2.55h2.36ZM80.48,8.91h8.13c0-2.32-1.46-3.69-3.94-3.69-2.31,0-3.87,1.32-4.19,3.69ZM96.64,14.76c-.12,0-.2-.03-.27-.1-.07-.07-.11-.18-.1-.28V5.6h3.1v-2.03h-3.1V0h-2.23v3.56h-2.97v2.03h4.87c-.21,0-.61.44-.74.58-.38.42-.72.93-.93,1.48-.23.63-.2,1.26-.23,1.92v2.04h0s0,.86,0,.86c0,2.39,1.89,4.33,4.22,4.33h1.86v-2.04h-3.47Z"/>
</svg>