<svg width="1610" height="557" viewBox="0 0 1610 557" fill="none" xmlns="http://www.w3.org/2000/svg">
<path d="M867.111 240.236H889.493V307.383H867.111V338.469C867.111 346.137 868.562 351.422 871.463 354.323C874.364 357.017 878.406 358.364 883.587 358.364H885.763C886.799 358.364 887.732 358.261 888.561 358.054L895.089 433.593C887.628 435.043 880.374 436.08 873.328 436.702C866.282 437.531 859.547 437.945 853.122 437.945C838.408 437.945 825.351 435.769 813.953 431.417C802.555 426.858 793.644 418.879 787.22 407.48C780.795 395.875 777.583 379.606 777.583 358.675V307.383H760.796V240.236H778.204L783.178 215.057L867.111 206.664V240.236ZM447.054 235.885C476.896 235.885 500.626 242.413 518.241 255.469C535.857 268.525 545.078 286.762 545.907 310.181V345.291H441.249V361.688C441.249 393.223 459.497 420.495 486.009 433.525C474.53 436.264 461.545 437.635 447.054 437.635C419.698 437.635 397.834 431.417 381.462 418.982C365.297 406.548 355.453 389.14 351.93 366.758C351.308 364.064 350.789 359.919 350.375 354.323C350.168 348.728 350.064 342.2 350.064 334.739C350.064 327.486 350.168 321.061 350.375 315.466C350.789 309.663 351.308 305.414 351.93 302.72C355.246 281.788 365.09 265.416 381.462 253.604C397.834 241.791 419.698 235.885 447.054 235.885ZM652.574 235.885C682.417 235.885 706.146 242.413 723.762 255.469C741.377 268.525 750.6 286.762 751.429 310.181V345.291H646.602V361.688C646.602 393.245 664.874 420.533 691.416 433.553C679.965 436.273 667.018 437.635 652.574 437.635C625.219 437.635 603.354 431.417 586.982 418.982C570.818 406.548 560.974 389.14 557.451 366.758C556.829 364.064 556.311 359.919 555.896 354.323C555.689 348.728 555.586 342.2 555.586 334.739C555.586 327.486 555.689 321.061 555.896 315.466C556.311 309.663 556.829 305.414 557.451 302.72C560.767 281.789 570.61 265.416 586.982 253.604C603.354 241.791 625.219 235.885 652.574 235.885ZM338.478 343.754C338.478 361.991 335.887 377.016 330.706 388.829C325.732 400.642 318.583 409.968 309.257 416.807C300.138 423.438 289.154 428.205 276.305 431.106C263.663 434.008 249.571 435.562 234.028 435.77C218.692 436.184 202.319 436.08 184.911 435.458L187.398 351.525C198.589 351.733 207.915 351.629 215.376 351.215C222.837 350.8 228.433 348.624 232.163 344.687C235.893 340.749 237.758 333.599 237.758 323.237V193.607H338.478V343.754ZM449.44 301.889C445.022 301.889 441.44 305.47 441.44 309.889V323.237H486.44V309.889C486.44 305.47 482.859 301.889 478.44 301.889H449.44ZM654.603 301.889C650.184 301.889 646.603 305.47 646.603 309.889V323.237H691.603V309.889C691.603 305.47 688.021 301.889 683.603 301.889H654.603Z" fill="#B4FFAD"/>
<path d="M1004.37 393.389V415.453C1004.37 422.44 1001.52 428.416 995.823 433.38C990.123 438.344 981.022 440.826 968.519 440.826C956.2 440.826 947.099 438.252 941.215 433.104C935.332 427.956 932.39 421.888 932.39 414.902V393.114C932.39 386.127 935.332 380.059 941.215 374.911C947.099 369.763 956.2 367.189 968.519 367.189C981.022 367.189 990.123 369.671 995.823 374.635C1001.52 379.6 1004.37 385.851 1004.37 393.389Z" fill="#B4FFAD"/>
<path d="M1015.65 256.87V213.57H1095.08V256.87H1015.65ZM1095.08 435.311H1015.65V264.316H1095.08V435.311ZM1226.36 259.904C1240.15 259.904 1250.99 261.65 1258.9 265.144C1266.81 268.637 1272.6 273.51 1276.28 279.761C1280.14 285.829 1282.62 292.907 1283.72 300.997C1284.83 309.088 1285.38 317.729 1285.38 326.922V435.311L1204.57 435.586V333.266C1204.57 332.714 1204.2 331.335 1203.47 329.129C1202.91 326.922 1200.8 325.819 1197.12 325.819C1193.45 325.819 1191.24 326.922 1190.5 329.129C1189.95 331.335 1189.68 332.714 1189.68 333.266V435.311H1108.04V324.44C1108.04 318.557 1108.04 310.007 1108.04 298.791C1108.22 287.575 1107.58 276.084 1106.11 264.316H1176.16C1178.37 275.9 1179.47 287.851 1179.47 300.17H1181.95C1181.95 292.999 1183.42 286.38 1186.37 280.313C1189.31 274.245 1194 269.373 1200.43 265.695C1207.05 261.834 1215.69 259.904 1226.36 259.904ZM1474.74 301.273L1476.12 403.594C1476.3 416.832 1475.01 428.599 1472.26 438.896C1469.5 449.192 1464.53 457.742 1457.36 464.545C1450.38 471.532 1440.45 476.772 1427.58 480.265C1414.71 483.943 1398.16 485.781 1377.93 485.781C1374.07 485.781 1369.02 485.598 1362.76 485.23C1356.7 485.046 1350.08 484.586 1342.91 483.851C1335.92 483.299 1329.03 482.472 1322.22 481.369C1315.42 480.449 1309.54 479.254 1304.57 477.783L1310.64 402.215C1321.49 405.892 1330.86 408.191 1338.77 409.11C1346.86 410.029 1354.4 410.489 1361.39 410.489C1370.39 410.489 1378.48 409.386 1385.66 407.179C1393.01 404.789 1397.51 401.02 1399.17 395.872C1397.51 396.607 1395.58 397.343 1393.38 398.078C1391.17 398.813 1387.95 399.457 1383.73 400.009C1379.68 400.56 1374.07 400.836 1366.9 400.836C1342.82 400.836 1324.7 395.78 1312.57 385.667C1300.62 375.555 1294.64 361.029 1294.64 342.091V323.061C1294.64 303.204 1299.24 287.759 1308.43 276.727C1317.63 265.512 1333.62 259.904 1356.42 259.904C1369.48 259.904 1379.68 262.294 1387.03 267.074C1394.39 271.671 1398.43 279.301 1399.17 289.966H1401.65C1401.65 285.737 1401.74 281.508 1401.93 277.279C1402.3 272.866 1402.66 268.545 1403.03 264.316H1477.22C1476.48 270.568 1475.84 276.819 1475.29 283.071C1474.92 289.138 1474.74 295.206 1474.74 301.273ZM1389.24 353.95V321.682C1389.24 320.947 1388.87 319.568 1388.14 317.545C1387.59 315.339 1385.47 314.236 1381.79 314.236C1378.12 314.236 1375.91 315.339 1375.18 317.545C1374.62 319.568 1374.35 320.947 1374.35 321.682V353.95C1374.35 354.502 1374.62 355.881 1375.18 358.087C1375.91 360.294 1378.12 361.397 1381.79 361.397C1385.47 361.397 1387.59 360.294 1388.14 358.087C1388.87 355.881 1389.24 354.502 1389.24 353.95Z" fill="white"/>
</svg>
