<?xml version="1.0" encoding="UTF-8"?>
<svg id="Layer_1" data-name="Layer 1" xmlns="http://www.w3.org/2000/svg" xmlns:xlink="http://www.w3.org/1999/xlink" viewBox="0 0 64 64">
  <defs>
    <style>
      .cls-1 {
        fill: none;
        stroke: rgba(255, 255, 255, .15);
        stroke-width: 1.2px;
      }

      .cls-2 {
        fill: #f1ecd9;
      }

      .cls-3 {
        fill: url(#linear-gradient);
      }
    </style>
    <linearGradient id="linear-gradient" x1="32" y1="58" x2="32" y2="10" gradientTransform="translate(0 66) scale(1 -1)" gradientUnits="userSpaceOnUse">
      <stop offset="0" stop-color="#fd6c33"/>
      <stop offset=".35" stop-color="#e65016"/>
      <stop offset="1" stop-color="#c2410f"/>
    </linearGradient>
  </defs>
  <g>
    <path class="cls-3" d="M8,27.8c0-8.25,0-12.37,2.1-15.27.68-.93,1.5-1.76,2.43-2.43,2.89-2.1,7.02-2.1,15.27-2.1h8.4c8.25,0,12.37,0,15.27,2.1.93.68,1.76,1.5,2.43,2.43,2.1,2.89,2.1,7.02,2.1,15.27v8.4c0,8.25,0,12.37-2.1,15.27-.68.93-1.5,1.76-2.43,2.43-2.89,2.1-7.02,2.1-15.27,2.1h-8.4c-8.25,0-12.37,0-15.27-2.1-.93-.68-1.76-1.5-2.43-2.43-2.1-2.89-2.1-7.02-2.1-15.27v-8.4Z"/>
    <path class="cls-1" d="M27.8,8.6h8.4c4.14,0,7.19,0,9.58.26,2.22.24,3.8.7,5.08,1.55l.25.17c.77.56,1.46,1.23,2.05,1.97l.25.33c.96,1.33,1.47,2.96,1.73,5.34.26,2.38.26,5.44.26,9.58v8.4c0,4.14,0,7.19-.26,9.58-.24,2.22-.7,3.8-1.55,5.08l-.17.25c-.56.77-1.23,1.46-1.97,2.05l-.33.25c-1.33.96-2.96,1.47-5.34,1.73-2.38.26-5.44.26-9.58.26h-8.4c-4.14,0-7.19,0-9.58-.26-2.22-.24-3.8-.7-5.08-1.55l-.25-.17c-.77-.56-1.46-1.23-2.05-1.97l-.25-.33c-.96-1.33-1.47-2.96-1.73-5.34-.26-2.38-.26-5.44-.26-9.58v-8.4c0-4.14,0-7.19.26-9.58.24-2.22.7-3.8,1.55-5.08l.17-.25c.56-.77,1.23-1.46,1.97-2.05l.33-.25c1.33-.96,2.96-1.47,5.34-1.73,2.38-.26,5.44-.26,9.58-.26Z"/>
  </g>
  <path class="cls-2" d="M21.16,22.69v6.03s.11.25.11.25c.15.37.47.77.78.98.16.11.46.25.76.35.82.27.81.38-.02.65-.73.24-1.14.56-1.41,1.11-.23.45-.23.52-.22,3.41v2.67h3.33c1.82,0,3.32,0,3.33-.02,0-.01.15-1.19.31-2.61.16-1.42.31-2.6.33-2.62.02-.02.08-.03.14-.02.09.01.13.11.35.75.59,1.73,1.39,2.85,2.63,3.67,1.12.75,2.1,1.05,3.59,1.12,2.03.08,3.67-.47,4.84-1.63,1.38-1.37,2.05-3.59,2.05-6.81,0-4.43-1.29-7.01-3.99-7.99-.18-.06-.57-.17-.88-.23-.52-.11-.63-.12-1.63-.12s-1.11,0-1.63.12c-.89.19-1.55.46-2.22.92-.47.32-1.37,1.23-1.7,1.73-.68,1.01-1.24,2.61-1.35,3.85-.03.32-.09.43-.19.33-.03-.03-.03-.96,0-2.64.09-5.23.11-6.96.11-8.1v-1.16h-3.71s-3.71-.02-3.71-.02v6.03ZM32.86,26.82c.88.28,1.55,1.15,1.73,2.28.07.42.06,1.37-.02,1.83-.18,1.03-.64,1.83-1.3,2.22-.46.28-1.18.38-1.87.28-.63-.1-1.32-.58-1.69-1.18-.72-1.18-.65-3.39.13-4.49.43-.6.93-.91,1.66-1.03.33-.05,1.04,0,1.35.09Z"/>
  <path class="cls-2" d="M23.12,40.37c-.91.19-1.67.92-1.9,1.81-.08.32-.08.95,0,1.29.21.79.81,1.45,1.62,1.74.35.13.96.16,1.33.06,1.37-.34,2.19-1.62,1.9-2.97-.2-.96-.98-1.73-1.94-1.94-.38-.08-.63-.08-1.01,0Z"/>
  <path class="cls-2" d="M30.96,40.38c-.92.2-1.69.95-1.91,1.88-.1.42-.06,1.03.08,1.42.63,1.73,2.82,2.22,4.11.92.99-.99.99-2.57,0-3.56-.6-.6-1.45-.85-2.27-.67Z"/>
  <path class="cls-2" d="M38.82,40.37c-.74.16-1.38.66-1.72,1.3-.15.3-.28.82-.28,1.15,0,.4.07.69.27,1.1.4.85,1.29,1.41,2.23,1.41.67,0,1.25-.25,1.74-.74.52-.53.74-1.05.74-1.75,0-.48-.07-.76-.28-1.17-.52-1-1.65-1.55-2.72-1.31Z"/>
</svg>