<?xml version="1.0" encoding="UTF-8"?>
<svg id="Layer_1" data-name="Layer 1" xmlns="http://www.w3.org/2000/svg" viewBox="0 0 64 64">
  <defs>
    <style>
      .cls-1 {
        fill: #0ff378;
      }
    </style>
  </defs>
  <path class="cls-1" d="M44.83,8.1c-.3.13-.54.34-.68.62-.1.17-.12.51-.14,2.15-.02,2.17,0,2.32.42,2.73.38.38.58.4,2.65.39,1.77,0,1.89-.01,2.17-.15.34-.17.6-.5.7-.85.03-.13.06-1.09.06-2.12,0-2.14-.03-2.26-.6-2.65l-.29-.2h-2.02c-1.7-.03-2.06-.01-2.27.08Z"/>
  <path class="cls-1" d="M20.96,14.06c-.35.11-.67.4-.81.72-.13.28-.14.47-.14,2.23,0,2.02-.01,2.12-.34,2.51-.35.42-.51.45-2.67.47-1.11,0-2.02.04-2.13.08-.26.1-.6.4-.73.66-.1.19-.12.5-.13,2.24,0,1.75-.03,2.04-.13,2.24-.17.33-.51.63-.8.71-.14.03-1.14.07-2.23.08l-1.99.02-.3.24c-.6.48-.56-.22-.56,8.72s-.01,8.17.36,8.58c.36.39.54.42,2.62.43,2.06,0,2.22.03,2.57.37.43.4.44.44.45,2.62,0,1.84.01,2,.15,2.25.16.31.54.65.8.7.09.02,1.04.05,2.11.06,2.07.02,2.14.03,2.52.38.39.37.4.44.42,2.6.01,2.14.03,2.22.39,2.61.38.42-.18.4,8.52.4,5.09,0,8.04-.02,8.19-.06.3-.1.61-.38.77-.71.12-.24.13-.47.13-2.2,0-1.76.01-1.96.14-2.24.14-.31.47-.61.78-.72.1-.03,1.05-.06,2.12-.06,1.86-.01,1.96-.02,2.24-.17.34-.17.63-.57.69-.92.01-.13.04-1.08.05-2.13v-1.88s.22-.31.22-.31c.13-.17.34-.36.52-.46.3-.15.38-.15,2.24-.15,1.57,0,1.98-.02,2.19-.1.3-.13.51-.33.69-.66.12-.23.13-.52.13-5.14,0-5.3.01-5.25-.37-5.65-.42-.45-.1-.42-5.61-.43-5.53-.01-5.21.01-5.66-.45-.33-.33-.35-.55-.37-2.66-.01-2.04-.01-2.04-.33-2.43-.06-.08-.22-.2-.35-.28-.23-.15-.33-.15-2.34-.19l-2.09-.03-.28-.19c-.16-.1-.35-.32-.44-.49l-.15-.29v-4.97c-.02-5.31-.01-5.2-.38-5.58-.42-.44-.12-.42-5.54-.43-2.94,0-5.02.01-5.14.06ZM25.11,20.08c.14.05.35.17.47.28.4.39.42.53.42,2.56,0,1.06.03,1.96.07,2.11.1.35.39.67.73.83.26.11.51.13,2.22.13,1.32,0,1.98.03,2.11.09.35.15.54.33.71.62.16.28.16.33.17,2.27,0,1.2.04,2.06.09,2.17.12.28.43.62.7.74.21.09.6.11,2.23.12,1.95,0,1.99.01,2.27.17.33.19.54.44.63.78.03.13.06,1.08.07,2.13,0,1.85,0,1.9.17,2.19.08.16.29.39.46.5l.3.22h1.97c1.26.01,2.05.05,2.2.1.31.1.58.35.76.7.14.26.14.38.14,2.72,0,1.34-.01,2.45-.03,2.47s-1.11.03-2.45.03c-2.63,0-2.71.02-3.11.4-.39.37-.41.5-.41,2.6,0,2.12-.03,2.29-.45,2.66-.4.35-.22.35-8.65.35h-7.87s-.29-.16-.29-.16c-.34-.17-.63-.58-.69-.92-.02-.13-.04-1.06-.05-2.08-.01-2.1-.04-2.21-.6-2.61l-.3-.21-2.09-.03c-2.01-.03-2.11-.04-2.34-.19-.13-.08-.3-.22-.36-.29-.31-.36-.3-.27-.3-8.6v-7.92s.16-.29.16-.29c.09-.17.28-.38.44-.49l.28-.19,2.09-.03c2.37-.04,2.38-.04,2.79-.62l.21-.3.02-1.99c0-1.13.05-2.09.09-2.21.14-.43.55-.76,1.04-.85s3.7-.04,3.98.05Z"/>
  <path class="cls-1" d="M40.37,17.18c-.37.06-.75.36-.93.72-.13.25-.14.42-.14,2.25,0,2.19.01,2.24.47,2.66.35.31.56.34,2.67.31l1.95-.02.3-.21c.56-.4.58-.5.6-2.63.01-1.56,0-1.93-.09-2.2-.12-.35-.45-.71-.79-.84-.21-.08-3.59-.12-4.04-.04Z"/>
  <path class="cls-1" d="M51.11,20.02c-.5.1-.92.49-1.04.97-.03.13-.06,1.09-.06,2.12v1.88s.19.32.19.32c.1.17.31.4.44.49.26.16.31.16,2.28.18,2.01.02,2.02.02,2.33-.15.17-.09.41-.3.52-.46l.21-.3v-1.92c.02-1.15,0-2.03-.04-2.19-.09-.35-.49-.79-.81-.89-.26-.08-3.65-.13-4.02-.06Z"/>
</svg>