<?xml version="1.0" encoding="UTF-8"?>
<svg id="Layer_1" data-name="Layer 1" xmlns="http://www.w3.org/2000/svg" viewBox="0 0 64 64">
  <defs>
    <style>
      .cls-1 {
        fill: #32ffdc;
      }
    </style>
  </defs>
  <path class="cls-1" d="M56,10.89c0-1.6-1.29-2.89-2.89-2.89h-6.22c-1.6,0-2.89,1.29-2.89,2.89v5.16c0,.77-.3,1.5-.85,2.04l-3.94,3.94c-.54.54-1.28.85-2.04.85h-8.2c-1.6,0-2.89-1.29-2.89-2.89v-9.11c0-1.6-1.29-2.89-2.89-2.89h-12.29c-1.6,0-2.89,1.29-2.89,2.89v12.29c0,1.6,1.29,2.89,2.89,2.89h9.11c1.6,0,2.89,1.29,2.89,2.89v6.07c0,1.6-1.29,2.89-2.89,2.89h-9.11c-1.6,0-2.89,1.29-2.89,2.89v12.29c0,1.6,1.29,2.89,2.89,2.89h12.29c1.6,0,2.89-1.29,2.89-2.89v-9.25c0-1.6,1.29-2.89,2.89-2.89h7.98c.77,0,1.5.3,2.04.85l4.16,4.16c.54.54.85,1.28.85,2.04v5.09c0,1.6,1.29,2.89,2.89,2.89h6.22c1.6,0,2.89-1.29,2.89-2.89v-6.22c0-1.6-1.29-2.89-2.89-2.89h-5c-.77,0-1.5-.3-2.04-.85l-4.25-4.25c-.54-.54-.85-1.28-.85-2.04v-9.65c0-.77.3-1.5.85-2.04l4.32-4.32c.54-.54,1.28-.85,2.04-.85h4.93c1.6,0,2.89-1.29,2.89-2.89v-6.22Z"/>
</svg>