<?xml version="1.0" encoding="UTF-8"?>
<svg id="Layer_1" data-name="Layer 1" xmlns="http://www.w3.org/2000/svg" viewBox="0 0 64 64">
  <defs>
    <style>
      .cls-1 {
        fill: #082013;
      }

      .cls-2 {
        fill: #5cc485;
      }
    </style>
  </defs>
  <path class="cls-2" d="M54.17,24.62h-19.41l.92-7.48.02-.1.94-7.65.02-.15.17-1.39-.9-1.89-.04-.08s-.08-.06-.12-.08c-.04-.03-.08-.06-.12-.08h-2.9s-.08.05-.12.08c0,0,0,0,0,0l-.03.04-.91,1.1v.02s-4.67,5.64-4.67,5.64l-.05.06-17.7,21.4c-2.04,1.54-1.49,5.56.93,5.56h18.89c-.07,2.91-.79,6.3-1.36,9.57-.24,1.41-.46,2.81-.58,4.14-.08.87-.12,1.72-.1,2.52.02.64.13,1.17.32,1.6.54.75,1.41,1.23,2.4,1.23.15,0,.3-.01.44-.04.36-.09.74-.24,1.14-.46l7.97-9.79h0l16.18-19.87c1.44-1.01-.65-3.92-1.33-3.92ZM33.72,47.9c-.81.14-.56-.74-.54-1.3.1-1.87,2.37-12.15-.23-12.15H15.62l14.49-18.11c.82-.14.56.73.51,1.28-.21,2.5-1.94,9.72-.51,11.39.38.14,1.07.78,1.29.78h16.3l-13.98,18.11Z"/>
  <path class="cls-1" d="M47.7,29.79l-13.98,18.11c-.81.14-.56-.74-.53-1.3.1-1.87,2.36-12.15-.24-12.15H15.62l14.5-18.11c.82-.14.55.72.51,1.28-.21,2.5-1.94,9.72-.51,11.39.38.13,1.06.78,1.29.78h16.3Z"/>
  <path class="cls-2" d="M39.32,48.41l-7.11,8.98s0,0-.01.01l-.22.29c-.45.51-1.08.87-1.78.97-.15.03-.29.04-.44.04-.99,0-1.86-.48-2.4-1.23-.35-.48-.56-1.08-.56-1.73,0-.02,0-.04,0-.06,0-.24.03-.47.09-.69l.23-1.64.58-4.14,1.36-9.57,2.12,11.59,8.12-2.81h0Z"/>
  <path class="cls-2" d="M36.92,7.97c0-.12-.02-.23-.04-.35-.01-.09-.03-.18-.05-.26-.02-.09-.05-.18-.08-.25-.01-.03-.02-.05-.03-.08-.02-.05-.05-.1-.06-.15-.03-.06-.06-.11-.09-.17-.04-.07-.08-.15-.13-.21-.02-.02-.03-.04-.04-.05-.04-.06-.08-.11-.13-.16-.06-.07-.12-.14-.2-.21-.04-.04-.08-.08-.13-.11l-.04-.08s-.08-.06-.12-.08c-.04-.03-.08-.06-.12-.08-.1-.07-.21-.12-.32-.17-.18-.08-.36-.14-.55-.18-.03,0-.07-.02-.1-.02-.07-.01-.14-.02-.21-.03-.09-.01-.18-.02-.28-.02s-.19,0-.28.02c-.09.01-.18.02-.27.04-.1.02-.2.05-.3.08-.07.02-.13.04-.19.07-.04.01-.08.03-.12.05-.1.05-.2.1-.29.16-.04.02-.08.05-.12.08,0,0,0,0,0,0-.14.09-.26.2-.37.31l-.36.44h0s-4.88,6.04-4.88,6.04l-.05.06,8.73,4.47.02-.1,1.12-8.08.06-.41s.01-.06.02-.09c.02-.12.03-.25.03-.38,0-.04,0-.08,0-.11Z"/>
</svg>