<?xml version="1.0" encoding="UTF-8"?>
<svg id="Layer_1" data-name="Layer 1" xmlns="http://www.w3.org/2000/svg" viewBox="0 0 64 64">
  <defs>
    <style>
      .cls-1 {
        fill: #71fc01;
      }
    </style>
  </defs>
  <path class="cls-1" d="M42.57,21.38l-5.93-10.58c-.31-.55-.89-.89-1.53-.89h-18.25c-1.34,0-2.18,1.44-1.53,2.6l4.01,7.15c.65,1.16-.19,2.6-1.53,2.6h-2.07c-.63,0-1.21.34-1.53.9l-5.98,10.69c-.29.53-.29,1.18,0,1.71l9.83,17.6c.31.55.89.9,1.53.9h4.65c.63,0,1.21-.34,1.53-.9l5.91-10.58c.31-.55.89-.89,1.53-.9h12.13c.63,0,1.21-.36,1.53-.9l8.9-15.92c.65-1.16-.19-2.6-1.53-2.6h-10.16c-.63,0-1.21-.34-1.53-.89h.02ZM32.52,36.61h-9.12c-1.11,0-1.82-1.2-1.28-2.18l5.56-9.93c.76-1.37,2.21-2.21,3.78-2.21h9.12c1.11,0,1.82,1.2,1.28,2.18l-5.56,9.93c-.76,1.37-2.21,2.21-3.78,2.21Z"/>
</svg>