<?xml version="1.0" encoding="UTF-8"?>
<svg id="Layer_1" data-name="Layer 1" xmlns="http://www.w3.org/2000/svg" viewBox="0 0 64 64">
  <defs>
    <style>
      .cls-1 {
        fill: #f5fff9;
        fill-rule: evenodd;
      }
    </style>
  </defs>
  <path class="cls-1" d="M53.58,24.18l-8.32,8.1,10,9.75c.55.53.55,1.4,0,1.94l-7.32,7.13c-.55.53-1.44.53-1.99,0l-5.74-5.59c-.27-.27-.61-.4-.99-.4h-17.45c-.39,0-.72-.13-.99-.4l-10.35-10.09c-.41-.4-.53-.97-.3-1.49.22-.52.72-.85,1.3-.85h33.84l-6.73-6.56c-.27-.27-.61-.4-.99-.4h-17.45c-.39,0-.72-.13-.99-.4l-10.35-10.09c-.41-.4-.53-.97-.3-1.49.22-.52.72-.85,1.3-.85h33.26c.39,0,.72.13.99.4l9.59,9.34c.55.53.55,1.4,0,1.94Z"/>
</svg>