<?xml version="1.0" encoding="UTF-8"?>
<svg id="Layer_1" data-name="Layer 1" xmlns="http://www.w3.org/2000/svg" viewBox="0 0 1080 1080">
  <defs>
    <style>
      .cls-1 {
        fill: #fff;
      }
    </style>
  </defs>
  <path class="cls-1" d="M803.94,649.29c20.38,26.31,44.85,40.78,49.48,81.44,23.64,207.25-285.49,227.97-301.1,19.7-10.38-138.59,8.02-290.04.21-430,4.03-53.71,38.02-109.63,89.91-128.95,39.07-14.55,197.63-15.17,238.49-4.16,92.12,24.82,129.54,142.68,74.98,219.93-50.8,71.92-237.02,132.27-151.98,242.04Z"/>
  <path class="cls-1" d="M348.45,182.78c87.45-9.26,169.8,35.91,176.84,129.61,11.22,149.28-7.9,313.45-1.18,464.24-24.87,132.8-171.3,128.24-278.58,120.36-93.37-6.85-157.51-73.21-145.31-169.05,10.39-81.58,108.1-125.96,163.1-176.92,28.95-26.82,43.21-52.4,30.11-92.76-10.92-33.66-42.01-47.65-55.56-77.32-40.03-87.68,14-187.93,110.57-198.16Z"/>
</svg>